/* XPM */
static char *teeth_2[] = {
/* width height num_colors chars_per_pixel */
"    64    64       13            1",
/* colors */
". c mask",
"# c #c50034",
"a c #b600a7",
"b c #f800f9",
"c c #ffd000",
"d c #ffffff",
"e c #64a100",
"f c #000056",
"g c #2f6fed",
"h c #ff0000",
"i c #00e7ff",
"j c #000000",
"k c #3e3e90",
/* pixels */
"................................................................",
"................................................................",
"................................................................",
"..c.............................................................",
"..c.............................................................",
"..c.............................................................",
"..c.............................................................",
"..ce............................................................",
"..cee...........................................................",
"..cce...........................................................",
"..cfee..........................................................",
"..ccee..........................................................",
"..ccfe..........................................................",
"..cceeg.........................................................",
"...ccfg.........................................................",
"...ccegg........................................................",
"...cffeg........................................................",
"...ccfeg........................................................",
"...ccffg......hh................................................",
"...cceegg......hb...............................................",
"...ccceeg......cbbb.............................................",
"...ccceeg.......cffb............................................",
"...ccfeegg.......cfff...######..................................",
"...cccfeeg........bfff..########................................",
"...cccefeg.......ffffff..##########..................d..........",
"...ccceeefg....ffffffffff##ii############d#######d###dd.........",
"...ccceeeeg...kkkkkkkkkk##ijji###a######ad###daadd###dd#####....",
"....cfeeeegg.kkkkkkkkkkk###ii####bd#aad#bdbaddbbdd#aaddbbaabbb..",
"....cceffffggkkkkkkkkkkk#####hhhhddhddddhddhddd.ddddddddd.ddd...",
"....cceeeeeeggggggggggg#########bddddddddddadadbb#dd#bbdd..dd...",
"....cccccccgccgccgcccg#################d#dd###d###dd###dd..dd...",
"....ccfffcfgccgcgccgcc##############.#########d...dd....d..d....",
"....cceeeeeegggggggggg#############.....................d..d....",
"....cceeeefegggggggggg############.........................d....",
"....ccfefegggiiiiiiiii.....######...............................",
"....cffeeeggg...iiiiii..........................................",
"...ccceeegg.....................................................",
"...cceeegg......................................................",
"...cceefg.......................................................",
"...ccfffg.......................................................",
"...ccfeeg.......................................................",
"...cceegg.......................................................",
"...ccefgg.......................................................",
"...cceeg........................................................",
"..ccffeg........................................................",
"..cceegg........................................................",
"..cce...........................................................",
"..cce...........................................................",
"..cff...........................................................",
"..cee...........................................................",
"..cee...........................................................",
"..ce............................................................",
"..ce............................................................",
"..ce............................................................",
"..c.............................................................",
"..c.............................................................",
"..c.............................................................",
"..c.............................................................",
"................................................................",
"................................................................",
"................................................................",
"................................................................",
"................................................................",
"................................................................"
};
