/* XPM */
static char *teeth_1[] = {
/* width height num_colors chars_per_pixel */
"    64    64       13            1",
/* colors */
". c mask",
"# c #c50034",
"a c #b600a7",
"b c #f800f9",
"c c #ffd000",
"d c #ffffff",
"e c #64a100",
"f c #000056",
"g c #2f6fed",
"h c #ff0000",
"i c #00e7ff",
"j c #000000",
"k c #3e3e90",
/* pixels */
"................................................................",
"................................................................",
"................................................................",
"................................................................",
".................................................#aabb..........",
"c.............................................##aabbdd..........",
"cc...........................................##aab..dd..........",
".cee........................................##aab....dd.........",
".ccee......................................##aabdd...dd.........",
".ccce.....................................##aabdddd...d.........",
".ccfee...................................##aab..ddd...dd........",
".cccfe..................................##aabd....dd............",
"..ccee..................................##abddd.................",
"..cccfg................................##aa.ddd.................",
"..ccfeg...............................##aa...ddd................",
"..ccfegg..........h..................##aabdd...d................",
"..cccfeg..........hh................##aabddd....................",
"...cceeg..........cb................#aab..ddd...................",
"...cfeeg..........cb...............##abdd...dd..................",
"...cffegg.........cbb.............##aabdd.......................",
"...cccffg.........cfb............###ab.ddd......................",
"...ccceeg.........cff..........#####ad..ddd.....................",
"...ccceegg........cff...###########abdd.........................",
"...cffeeeg........bfff..##########aabddd........................",
"...cccfffg.......ffffff..##ii#####abd.dd........................",
"...ccceeegg....ffffffffff#ijji####a.dd..........................",
"...ccceeeeg...kkkkkkkkkk###ii###aadd.d..........................",
"...cfffeeegg.kkkkkkkkkkk#######abdddd...........................",
"...ccceffffggkkkkkkkkkkk#####bbbd.d.............................",
"...ccceeeeeeggggggggggg#####bbdhdhhhh...........................",
"...ccccccccgccgccgcccg#####abbdhhhhhhhhh........................",
"...cfffffccgccgcgccgcc####abbhhhhhhhhhhhhhh......hh.............",
"...ccceeeeeegggggggggg#####bbhddhhhhhhhhhhhhhhh.hh..............",
"..cccceeeeeegggggggggg######bbdhhd......hhhhhhhhh...............",
"..cccceeeegggiiiiiiiii#######bbbdddd............................",
"..cffffefeggg...iiiiii.#######aab.dd............................",
"..cccceeegg.............#######aabdd.d..........................",
"..ccceeegg................######aab..d..........................",
"..ccceeeg..................######aabdd..........................",
"..cccfffg..................#######aab.dd........................",
"..cffeeeg...................#######abddd........................",
"..ccceegg......................####aadd..d......................",
"..ccceegg.......................####ab..dd......................",
"..cccfeg.........................###aabdd..d....................",
"..ccceeg..........................###abd...d....................",
"..cffegg...........................###ab..dd....................",
".cfce...............................###abdd..dd.................",
".ccce................................##aabd.dd..................",
".ccce.................................##aa..dd...d..............",
".ccef..................................##abdd...dd..............",
".ccfe...................................##abd..ddd..............",
".cce.....................................#aab.ddd...............",
".ffe.....................................##aabdd...dd...........",
"ccee......................................##aabd...dd...........",
"c...........................................#aab.ddd............",
"............................................##aabdd.............",
"..............................................#aaad.............",
"................................................#aab............",
"...................................................ab...........",
"................................................................",
"................................................................",
"................................................................",
"................................................................",
"................................................................"
};
