/* XPM */
static char *city[] = {
/* width height ncolors chars_per_pixel */
"64 64 6 1",
/* colors */
"` c black",
"a c red",
"b c white",
"c c yellow",
"d c gold",
"e c None",
/* pixels */
"eeeeeeeeeeeeeeeeeeeeeeeeeeeeeeeeeeeeeeeeeeeeeeeeeeeeeeeeeeeeeeee",
"eeeeeeeeeeeeeeeeeeeeeeeeeeeeeeeeeeeeeeeeeeeeeeeeeeeeeeeeeeeeeeee",
"eeeeeeeeeeeeeeeeeeeeeeeeeeeeeeeeeeeeeeeeeeeeeeeeeeeeeeeeeeeeeeee",
"eeeeeeeeeeeeeeeeeeeeeeeeeeeeeeeeeeeeeeeeeeeeeeeeeeeeeeeeeeeeeeee",
"eeeeeeeeeeeeeeeeeeeeeeeeeeeeeeeeeeeeeeeeeeeeeeeeeeeeeeeeeeeeeeee",
"eeeeeeeeeeeeeeeeeeeeeeeeeeeeeeeeeeeeeeeeeeeeeeeeeeeeeeeeeeeeeeee",
"eeeeeeeeeeeeeeeeeeeeeeeeeeeeeeeeeeeeeeeeeeeeeeeeeeeeeeeeeeeeeeee",
"eeeeeeeeeeeeeeeeeeeeeeeeeeeeeeeeeeeeeeeeeeeeeeeeeeeeeeeeeeeeeeee",
"eeeeeeeeeeeeeeeeeeeeeeeeeeeeeeeeeeeeeeeeeeeeeeeeeeeeeeeeeeeeeeee",
"eeeeeeeeeeeeeeeeeeeeeeeeeeeeeeeeeeeeeeeeeeeeeeeeeeeeeeeeeeeeeeee",
"eeeeeeeeeeeeeeeeeeeeeeeeeeeeeeeeeeeeeeeeeeeeeeeeeeeeeeeeeeeeeeee",
"eeeeeeeeeeeeeeeeeeeeeeeeeeeeeeeeeeeeeeeeeeeeeeeeeeeeeeeeeeeeeeee",
"eeeeeeeeeeeeeeeeeeeeeeeeeeeeeeeeeeeeeeeeeeeeeeeeeeeeeeeeeeeeeeee",
"eeeeeeeeeeeeeeeeeeeeeeeeeeeeeeeeeeeeeeeeeeeeeeeeeeeeeeeeeeeeeeee",
"eeeeeeeeeeeeeeeeeeeeeeeeeeeeeeeeeeeeeeeeeeeeeeeeeeeeeeeeeeeeeeee",
"eeeeeeeeeeeeeeeeeeeeeeeeeeeeeeeeeeeeeeee`eeeeeeeeeeeeeeeeeeeeeee",
"eeeeeeeeeeeeeeeeeeeeeeeeeeeeeeeeeeeeeeee`eeeeeeeeeeeeeeeeeeeeeee",
"eeeeeeeeeeeeeeeeeeeeeeeeeeeeeeeeeeeeeeee`eeeeeeeeeeeeeeeeeeeeeee",
"eeee`````eeeeeeeeeeeeeeeeeeeeeeeeeeeeee`a`eeeeeeeeeeeeeeeeeeeeee",
"eeee`d```eeeeeeeeeeeeeeeeeeeeeeeeeeeeee`a`eeeeeeeeeeeeeeeeeeeeee",
"eeee```d`eeeeeeeeeeeeeeeeeeeeeeeeeeeee`aaa`eeeeeeeeeeeeeeeeeeeee",
"eeee`````eeeeeeeeeeeeeeeeeeeeeeeeeeeee`aaa`eeeeeeeeeeeeeeeeeeeee",
"eeee`d```eeeeeeeeeeeeeeeeeeeeeeeeeee``````````eeeeeeeeeeeeeeeeee",
"eeee```d`eeeeeeeeeeeeeeeeeeeeeeeeeee`bb`bb`bb`eeeeeeeeeeeeeeeeee",
"eeee`````eeeeeeeeeeeeeeeeeeeeeeeeeee`bb`bb`bb`eeeeeeeeeeeeeeecee",
"eeee``d``eeeeeeeeeeeeeeeeeeeeeeeeeee``````````eeeeeeeeeeeeeee``e",
"eeee`````eeeeeeeeeeeeeeeeeeeeeeeeeee`bb````bb`eeeeeeeeeeeeeee``e",
"eeee`d```eeeeeeeeeeeeeeeeeeeeeeeeeee`bb````bb`eeeeeeeeeeeeeee``e",
"eeee`````eeeeeeeeeee````eeeeeeeeeeee``````````e```````````eee``e",
"eeee```d`eeeeeeeeeee`bb`eeee`````eee````bb````e`b`d`b`bb``eee``e",
"eeee`````eeeeeeeeeee````eeee`d`b`eee````bb````e```````````eee``e",
"eeee`````eeeeeeeeeee`bb`eeee`d`b`eee``````````e`b``d``bbb`eee``e",
"eeee`bbb`eeeeeeeeeee````eeee`````eee`bb```````e```````````eee``e",
"eeee`````eeeeeeeeeee`bb`eeee`d```eee`bb```````e`bb`d`bb`d`ee````",
"eeee```d`eeeeeeeeeee````eeee`d```eee````bb`bb`e```````````ee`bb`",
"eeee`````eeeeeeeeeee````eeee```d`eee````bb`bb`e`b`d`b`bbb`ee````",
"eeee``d``eeeeeeeeeee````eeee```d`eee``````````e```````````ee`bb`",
"eeee``````````eeeeee`bb`eeee`````eee``````````e``bb`d``bb`ee````",
"eeee`````bb```eeeeee````eeee`````eee``````````e```````````ee````",
"eeee```````bb`eeeeee````eeee```d`eee``````````e``bb`d`bbb`ee````",
"eeee`d````````eeeeee`bb`eeee```d`eee`bb````bb`e```````````ee`bb`",
"eeee`````bb```eeee```````eee`````eee`bb````bb`e`b`bb`bbb``ee````",
"eeee``d```````eeee`bbbbb`eee```d``````````````e```````````ee`d``",
"eeee```````bb`eeee```````eee```d````````bb`bb`e`b`d``bb`d`ee````",
"eeee```d`bb```ee`````````eee``````d`````bb`bb`e```````````ee``d`",
"eeee``````````ee`bbbbbbb`eee`d`b`d````````````e`b`d``d`b``ee````",
"``ee```d```bb`ee`````````eee`d`b`````bb```````e``````````````bb`",
"``ee`````bb```ee`````````eee``````d``bb``````````d```bb`d`b`````",
"`eee```````bb`ee`````````````````d````````````````````````d``bb`",
"``ee```d``````ee`bbbbbbb`````d``````````bb``````bb````bb``d`````",
"``ee`d```````````````````d```d``````````bb```````````````````bb`",
"b`ee```````bb````bbbbbbb```````d````````````````d`b``d`bb```````",
"``ee`````bb````d```````````````d``d````````bb``````````````d`b``",
"`````bb````````````````````d`````d`````````bb````d```bb`d``d````",
"``d``````bb````````````````````d```````````````````````````d`b``",
"`````d`````bb````bbbbbbb`d`````d``d````````bb```d``bb``````d````",
"b``d``````````d``````````d```d```d`````````bb``````````d`````bb`",
"`````d```bb``````bbbbbbb`````d``````````````````bbb```````d`````",
"``d````````bb`````````````````````d``bb```````````````````d``bb`",
"b`````bb```````d````bbbb```d`````d```bb`````````d`````bb``d`````",
"```d`````````````````````d````````````````````````````````d``bb`",
"````````````````````````````````````````````````````````````````",
"````````````````````````````````````````````````````````````````",
"````````````````````````````````````````````````````````````````"
};
