/* XPM */
static char *dragon_xpm[] = {
/* width height ncolors chars_per_pixel */
"64 64 19 1",
/* colors */
"  c black",
". c tan",
"X c lime green",
"o c wheat",
"O c firebrick",
"+ c peru",
"@ c grey",
"# c sienna",
"$ c dark slate grey",
"% c sea green",
"& c tomato",
"* c white",
"= c yellow",
"- c gold",
"; c slate grey",
": c lemon chiffon",
"> c orange",
", c None",
"< c pale green",
/* pixels */
",,,,,,,,,,,,,,,,,,,,,,,,,,,,,,,,,,,,,,,,,,,,,,,,,,,,,,,,,,,,,,,,",
",,,,,,,,,,,,,,,,,,,,,,,,,,,,,,,,,,,,,,,,,,,,,,,,,,,,,,,,,,,,,,,,",
",,,,,,,,,,,,,,,,,,,,,,,,,,,,,,,,,,,,,,,,,,,,,,,,,,,,,,,,,,,,,,,,",
",,,,,,,,,,,,,,,,,,,,,,,,,,,,,,,,,,,,,,,,,,,,,,,,,,,,,,,,,,,,,,,,",
",,,,,,,,,,,,,,,,,,,,,,,,,,,,,,,,,,,,,,,,,,,,,,,,,,,,,,,,,,,,,,,,",
",,,,,,,,,,,,,,,,,,,,,,,,,,,,,,,,,,,,,,,,,,,,,,,,,,,,,,,,,,,,$;#,",
",,,,,,,,,,,,,,,,,,,,,,,,,,,,,,,,,,,,,,,,,,,,,,,,,,,,,,,,,,,#.#,,",
",,,,,,,,,,,,,,,,,,,,,,,,,,,,,,,,,,,,,,,,,,,,,,,,,,,,,,,,,#+.$,,,",
",,,,,,,,,,,,,,,,,,,,,,,,,,,,,,,,,,,,,,,,,,,,,,,,,,,,,,,,..#,,,,,",
",,,,,,,,,,,,,,,,,,,,,,,,,,,,,,,,,,,,,,,,,,,,,,,,,,,,,,+.#$,,,,,,",
",,,,,,,,,,,,,,,,,,,,,,,,,,,,,,,,,,,,,,,,,,,,,,,,,,,,+..$#,,,,,,,",
",,,,,,,,,,,,,,,,,,,,,,,,,,,,,#,,,,,,,,,,,,,,,,,,,,#.;# #,,,,,,,,",
",,,,,,,,,,,,,,,,,,,,,,,,,,,,#.,,,,,,,,,,,,,,,,,,#.+%#,,,,,,,,,,,",
",,,,,,,,,,,,,,,,,,,,,,,,,,,#.%#,,,,,,,,,,,,,#$#.@# #,,,,,,,,,,,,",
",,,,,,,,,,,,,,,,,,,,,,,,,,,.%#$,,,,,,,,,,,,$O;.#$$,,,,,,,,,,,,,,",
",,,,,,,,,,,,,,,,,,,,,,,,,,;+ #,,,,,,,,,,,$$#++ $,,,,,,,,,,,,,,,,",
",,,,,,,,,,,,,,,,,,,,,,,,#+.$#,,,,,,,,,$ #$#.$$#,,,,,,,,,,,,,,,,,",
",,,,,,,,,,,,,,,,,,,,,,,$#%# ###%O,,,O$O$##$$ #,,,,,,,,,,,,,,,,,,",
",,,,,,,,,,,,,,,,,,,,,,,#;# $##$##,,$ ###%$$ #$,,++,,,,,,,,,,,,,,",
",,,,,,,,,,,,,,,,,,,,,,O$#$##$$$  $$#%#$$# ##$#+.+,,,,,,,,,,,,,,,",
",,,,,,,,,,,,,,,,,,,,#$#$##X# # +###+#$$# #$+.=;,,,,,,,,+;+++##,,",
",,,,,,,,,,,,,,,,,,$O #%+#$#$#++..;#%+$# #;-.+$#,,,,,##%##$#$#,,,",
",,,,,,,,,,,,,,,$O  $#+#$$##+<..++%+%# $#++%$$#$#,#$#$#$#$#OO,,,,",
",,,,,,,,,,,,,, #$#$#+%$$#+.;+$ $ $#$ $#;#$###%#$ #$#$$#$###,,,,,",
",,,,,,+,,,,,,$#$#$#$#$##+<# $ $ # # +$ $$#$+<+.%#$#$#O### ,,,,,,",
",,,,,,+#,,,,# $#$#$#$##+X#$ $+#$$# #$+$ $ $$$+#;#$# #%#$#,,,,,,,",
",,,,,,.+,,,,O$#$$##$#$+;#  +o.#+$#$$#.$# $#++X$$$#$#$###,,,,,,,,",
",,,,,,+.,,,, #$##X##%+X# $$#%#X;.# $+.#$$ $%.##$$ $$#X#$,,,,,,,,",
",,,,,,#.++,$ $ #+#%#++#$$O $  $#$$##%%#$ $##%%+$$# # +.$,,,,,,,,",
",,,,,,++.+$O$##+X##.;+ ####$###$$#$%#+% #$ $+$#$#$$#$%##,,,,,,,,",
",,,,,,$#<+;+ #X++%#%+$+X+..-..+++#++%$$$ $ #$$$$$#$ $$ ,,,,,,,,,",
",,,,$O$$#$.%++..+%##$+;++.+%#+%+%#%%##$#$#$ $ $$#$$#$O$,,,,,,,,,",
",,,,O#$ $#$#;% $##$#X#+X+%##$$#$#$#$ $ $$ #$ # $$#$#%$ ,,,$##.#,",
",,,,$+$$# $+# #$#+%#+###$# #X##$$# #$####$ #$$#$$$$$##$$$#$#$$$,",
",,,$$ $O ##X$#.#X#+X#X#$#%..o.o.-<.+$#%#$#$# $$ #$#$+$#$ $#$$##,",
",,, #$ $#%+###;##$$###$$+.#$$ $$$#$$#$+%+#  $$##$ $#%+%+# $$##$,",
",,,#$ #$##%%$$#$+++%#$#$  $$# #$#  $$ #$#%$$ $$#$$ ###+%;$#$#X#,",
",,,,O$ #X#+$##...<#$ $ $#+##+#$#;.# $ $##$# O  $##$$#X;+%# $###,",
",,,,$ #%+$##+<+$ $ #+#+#.#;$%  ++;$#$O###$ $ #$#$;$ $##+.+$$#<$,",
",,,,O$%+#$#X#$$##o++. .#$$$  # $##  #$### $ $ O$$++$#%+X.%$$#$O,",
",,,,  ##$#%$ #+.$+.#+,$#  O $ $ $#$##$#$ $O #$O##%%#$##;-.#$ #,,",
",,,,$ #$$#$O,,++#*:#,, $ # $O$O$# $+##$ $  $ O$###+#$$%#;.%#$,,,",
",,,, $ #$# #,,,.:,,,,,# $$OO#O#$ O#+$## $# #$O#++#%.$$#%+o%+$#,,",
",,,, O$$ #$,,,,:.,,,, ##OOO####  $#$%#$ $ $$ ###O##.#$$+;+.%$$,,",
",,,,$ # ,, ,,,,,,,,#O#OO##O# $  #+#.# $O # $O#+#++#%.$$#$+<.$O$,",
",,,,,$ #,,,$,,,,,,#O#O##### $ O$$#.+ ###%#$O#+++.+##+$$#X#.+%#$,",
",,,,,,,,,,,,,,,,,## #+#O# $ # $ #+#$$#$$#%.+#+++++##;# $+.+;. #,",
",,,,,,,,,,,,,,,,O OO+O# # O$$# $+# #$#$# #$;##++++#OX+$$#X..%#$,",
",,,,,,,,,,,,,,,#O####O$# $ # +###$#,,,##$O ##$#++#+##.$$#$+=;;$,",
",,,,,,,,,,,,,#O#O##O$ # #$#$.#$# #,,,,;## ######O>##$++ #X+;.#$,",
",,,,,,,,,,,,## #OO##$#$$ O#$ #$##,,,,,#$$O##+##++OO+#%%$$#+..%#,",
",,,,,,,,,,,###O#O# ##  ###$### O,,,,,, O # +O++#>#># %+ #;X+<#$,",
",,,,,,,,,,## O## ## #$O+;#$####,,,,,,,#$# ####O#######; $#++.X+,",
",,,,,,,,,O#O##O$O$O#$###$+##$#,,,,,,,,O$ ##+++++#### X+$$+X+.#$,",
",,,,,,,,,# ## # # #####$#%$#,,,,,,,,,,$ #O#+#+.+.+##$#; ##.+<+#,",
",,,,,,,+ O##$#,,,,#$#$$$## ,,,,,,,,,,,$O$#+#>#+#+++#$+#$$#X##;%,",
",,,,,,,O## OO,,,,,$O$ # ,,,,,,,,,,,,,#O$O#++O++#++##$#X$#$#+<#+,",
",,,,,:$# O$#,,,,,,,,,,,,,,,,,,,,,,,,,$#O#++#&O+&#++O$.# $#;X+#%,",
",,,,,# #$#,,,,,,,,,,,,,,,,,,,,,,,,,,,#$ #+O#++O>O+O#$+$$#$+#+X+,",
",,,#$ # #,,,,,,,,,,,,,,,,,,,,,,,,,,, #$#####OO+##### #$ $##X#+;,",
",# $ #,,,,,,,,,,,,,,,,,,,,,,,,,,,,,,$O ####$##O#####$+$ #%##+%#,",
", $,,,,,,,,,,,,,,,,,,,,,,,,,,,,,,,,# $O###+#++##### %# $$#%#%##,",
",,,,,,,,,,,,,,,,,,,,,,,,,,,,,,,,,,, #O#+++O++++## # +$ #$###+%#,",
",,,,,,,,,,,,,,,,,,,,,,,,,,,,,,,,,,,$O$#+&#O++++#+#$#$$$ $#$%%+%,"
};
