/* XPM */
static char *flowers_xpm[] = {
/* width height ncolors chars_per_pixel */
"64 64 10 1",
/* colors */
"` c black",
"a c lime green",
"b c wheat",
"c c dodger blue",
"d c gainsboro",
"e c sky blue",
"f c white",
"g c lemon chiffon",
"h c orange",
"i c pale green",
/* pixels */
"````````````````````````````````````````````````````````````````",
"`ccc`iiiiiiiiii``ccc`dddddddddddddddddddddd`ccc``iiiiiiiiii`ccc`",
"`ccc`iiiiiiiii`g`ccc`dddddddddddddddddddddd`ccc`g`iiiiiiiii`ccc`",
"`ccc`iiiiiiii`gg`ccc`dddddddddddddddddddddd`ccc`gg`iiiiiiii`ccc`",
"`````````````ggg````````````````````````````````ggg`````````````",
"`ggg`fff`ddd`ggg`ddd`ffffffffffffffffffffff`ddd`ggg`ddd`fff`ggg`",
"`ggg`fff`ddd`ggg`ddd`ffffffffffffffffffffff`ddd`ggg`ddd`fff`ggg`",
"`ggg`ff```dd`ggg`ddd`ffffffffffffffffffffff`ddd`ggg`dd```ff`ggg`",
"`ggg````f````ggg`````ffffffffffffffffffffff`````ggg````f````ggg`",
"`ggg`dd```ff`ggg`ffffffffffffffffffffffffffffff`ggg`ff```dd`ggg`",
"`ggg`ddd`fff`ggg`ffffffffffffffffffffffffffffff`ggg`fff`ddd`ggg`",
"`ggg`ddd`fff`ggg`ffffffffffffffffffffffffffffff`ggg`fff`ddd`ggg`",
"`ggg`````````````ffffffffffffffffffffffffffffff`````````````ggg`",
"`gg`iiiiiiii`ccc`ffffffffffffffffffbbffffffffff`ccc`iiiiiiii`gg`",
"`g`iiiiiiiii`ccc`fffffffffffffffffbbbffffffffff`ccc`iiiiiiiii`g`",
"``iiiiiiiiii`ccc`fffffffffffhhhffbbbbffffffffff`ccc`iiiiiiiiii``",
"`````````````````ffffffffffhgghffbbbbffffffffff`````````````````",
"`ccc`ddd`ffffffffffffffffffhghhhfbbbbffffffffffffffffff`ddd`ccc`",
"`ccc`ddd`ffffffffffffffffffhhhhhfbbbfffffffffffffffffff`ddd`ccc`",
"`ccc`ddd`fffffffffffffffffffhhhhfbfffffffffffffffffffff`ddd`ccc`",
"`````````fffffffffbbbffffbbbffhhhfbbbbfffffbbbfffffffff`````````",
"`ddd`fffffhhhffffbbbbffbbbbbbffhhfbbbbbbfffbbbbffffhhhfffff`ddd`",
"`ddd`ffffhgghffbbbbbbfffbbbbbbbffbbbbbbbbffbbbbbbffhgghffff`ddd`",
"`ddd`ffffhghhhfbbbbbfffffbbbbbfbbfbbbbbbffffbbbbbfhhhghffff`ddd`",
"`ddd`ffffhhhhhfbbbbffffffffbbffbbfffbbfffffffbbbbfhhhhhffff`ddd`",
"`ddd`fffffhhhhfbfffffffffffffbbbbbffffffffffffffffhhhhfffff`ddd`",
"`ddd`fffffffhhhffffffffffffffbbbbbfaffffffffffffhhhhfffffff`ddd`",
"`ddd`ffffbbbfhhfbbbbfffffffffbbbbbffaffffffffbbbfhhfbbbffff`ddd`",
"`ddd`ffbbbbbbffbbbbbbfffffffffbbbfffaffffffbbbbbbffbbbbbbff`ddd`",
"`ddd`ffbbbbbfbbfbbbbbfffffffffbbffffaffffffbbbbbfbbfbbbbbff`ddd`",
"`ddd`fbbbbbffbbffbbbbbfffffffffffffaafffffbbbbbfbbbffbbbbbf`ddd`",
"`ddd`fbbbbfbbbbfffbbbbfffffffffffffaffffffbbbbffbbbbbfbbbbf`ddd`",
"`ddd`fbbfffbbbbbffffbbfffffffffffffaffffffbbffffbbbbbfffbbf`ddd`",
"`ddd`ffffffbbbbbfffffffffffffffffffafffffffffaafbbbbbffffff`ddd`",
"`ddd`ffffffbbbbbfaafffffffffffffffaaffffffffaafffbbbbffffff`ddd`",
"`ddd`fffffffbbbfffaaafffffffffffffaffffffffaaffffbbbfffffff`ddd`",
"`ddd`ffffffffbbfffffaaffffffffffffafffffffaafffffbbffffffff`ddd`",
"`ddd`ffffffffffffffffaafffffffffffaffffffaaffffffffffffffff`ddd`",
"`ddd`fffffffffffffffffaafffffffffaafffffaafffffffffffffffff`ddd`",
"`ddd`ffffffffffffffffffaaffffffffaaffffaaffffffffffffffffff`ddd`",
"`ddd`fffffffffffffffffffaffffffffafffffafffffffffffffffffff`ddd`",
"`ddd`fffffffffffffffffffaaffffffaaffffaafffffffffffffffffff`ddd`",
"`ddd`ffffffffffaaaaafffffaffffffaaffffafffffaaaaaffffffffff`ddd`",
"`ddd`fffffffffaafaaaaafffaafffffaffffaafffaaaaafaafffffffff`ddd`",
"`ddd`ffffffffaafffaaaaaaffafffffaffffaffaaaaaafffaaffffffff`ddd`",
"`ddd`ffffffffafffffaaaaaafaafffaafffaaffaaaaafffffaffffffff`ddd`",
"`````ffffffffaffffffaaaaaffafffaafffaffaaaaaffffffaffffffff`````",
"`ccc`fffffffffffffffffaaaafafffaafffafaaaafffffffffffffffff`ccc`",
"`ccc`ffffffffffffffffffaaafaaffaaffaafaaaffffffffffffffffff`ccc`",
"`ccc`fffffffffffffffffffaaafaffaaffafaaafffffffffffffffffff`ccc`",
"``````````fffffffffffffffaaaaffaaffaaaafffffffffffffff``````````",
"``iiiiiii`ffffffffffffffffaaaafaafaaaaffffffffffffffff`iiiiiii``",
"`g`iiiiii`fffffffffffffffffaaafaafaaafffffffffffffffff`iiiiii`g`",
"`gg`iiiii`ffffffffffffffffffaafaafaaffffffffffffffffff`iiiii`gg`",
"`ggg``````````ffffffffffffffaafaafaaffffffffffffff``````````ggg`",
"`ggg`eee``ggg`fffffffffffffffafaafafffffffffffffff`ggg``eee`ggg`",
"`ggg`e``f`ggg`fffffffffffffffafaafafffffffffffffff`ggg`f``e`ggg`",
"`ggg`e``f`ggg`fffffffffffffffafaafafffffffffffffff`ggg`f``e`ggg`",
"`ggg``fff`ggg`fffffffffffffffafaafafffffffffffffff`ggg`fff``ggg`",
"``````````ggg``````````````````````````````````````ggg``````````",
"`ccc`iiiii`gg`ccc`dddddddddddddddddddddddddddd`ccc`gg`iiiii`ccc`",
"`ccc`iiiiii`g`ccc`dddddddddddddddddddddddddddd`ccc`g`iiiiii`ccc`",
"`ccc`iiiiiii``ccc`dddddddddddddddddddddddddddd`ccc``iiiiiii`ccc`",
"````````````````````````````````````````````````````````````````"
};
