/* XPM */
static char *hawk_shape.xpm_xpm[] = {
/* width height ncolors chars_per_pixel */
"64 64 15 1",
/* colors */
"  c tan",
". c wheat",
"X c gainsboro",
"o c firebrick",
"O c peru",
"+ c violet",
"@ c grey",
"# c sienna",
"$ c dark slate grey",
"% c purple",
"& c navy blue",
"* c tomato",
"= c slate grey",
"- c lemon chiffon",
"; c None",
/* pixels */
";;;;;;;;;;;;;;;;;;;;;;;;;;;;;;;;;;;;;;;;;;;;;;;;;;;;;;;;;;;;;;;;",
";;;;;;;;;;;;;;;;;;;;;;;;;;;;;;;;;;;;;;;;;;;;;;;;;;;;;;;;;;;;;;;;",
";;;;;;;;;;;;;;;;;;;;;;;;;;;;;;;;;;;;;;;;;;;;;;;;;;;;;;;;;;;;;;;;",
";;;;;;;;;;;;;;;;;;;;;;;;;;;;;;;;;;;;;;;;;;;;;;;;;;;;;;;;;;;;;;;;",
";;;;;;;;;;;;;;;;;;;;;;;;@;;;;;;;;;;;;;;;;;;;;;;;;;;;;;;;;;;;;;;;",
";;;;;;;;;;;;;;;;;;;;@;;@@;;;;;;;;;;;;;;;;;;;;;;;;;;;;;;;;;;;;;;;",
";;;;;;;;;;;;;;;;;;;;@;;@@;;;;;;;;;;;;;;;;;;@@;;;;;;;;;;;;;;;;;;;",
";;;;;;;;;;;;;;;;;;;;@@;;% ;;;;;;;;;X;;;;@@;X@;;;;;;;;;;;;;;;;;;;",
";;;;;;;;;;;;;;;;;;;;@+=; =@;;;;;;;;@@;;;@@;@+@;;;;;;;;;;;;;;;;;;",
";;;;;;;;;;;;;;;@;;;;;@=@ %=;;;;;;;;+@@@;+@;@@@;;;;;;;;;;;;;;;;;;",
";;;;;;;;;;;;X@;@@@;;;@=%==#+;;;;@@;;@+@@@ ;@=+-;;;;;;;;;;;;;;;;;",
";;;;;;;;;;;;;@@;@+=;;; =#+==@;;;@@@;@@@@+=;+= ;;;;;;;;;;;;;;;;;;",
";;;;;;;;;;;;;@+@@@@ ;;+===o==+;@@+@@;@+=@=  =%-;;;;;;;;;;;;;;;;;",
";;;;;;;;;;;;;;;==@+$@;@ %==%#=@+@@@@;@ = %=+#=;;;;;;;;;;;;;;;;;;",
";;;;;;;;;;;;@@;;=%=#==;+=*===% =@+@+=.+=#=#+==;;;;;;;;;;;;;;;;;;",
";;;;;;;;;;;;+=@@+=#=%o= @=%=*=+=@@@@=@.%#%==%=;;;;;;;;;;;;;;;;;;",
";;;;;;;;;;;;@@+=#=%#==% =+ =%  @+=+@=o====*= o=;;;;;;;;;;;;;;;;;",
";;;;;;;;;;;;;=@@%=#=%#=#+==@==+ @+=@+=%=*=%=@%=;;;;;;;;;;;;;;;;;",
";;;;;;;;;;;;;;+=@@%#==+==+ + ==  @ +==#=%= =+ =;;;;;;;;;;;;;;;;;",
";;;;;;;;;;;;;;;@+@@=#%= +=@@@+O%   +=#%==+=+==+@;;;;;;;;;;;;;;;;",
";;;;;;;;;;;;;@;;@=+@@==+=+@=+ =  *@@@%#=#+ =+ ==;;;;;;;;;;;;;;;;",
";;;;;;;;;;;;;;@;;+==+ + @@ +  +  %  .@ ===+ =+*=@;;;;;;;;;;;;;;;",
";;;;;;;;;;;;;;@@@@ ===+@@X@ @@ O  O+O+@+#==+ =@+= ;;;;;;;;;;;;;;",
";;;;;;;;;;;;;;;+@@+ %#==@@+ +O+=+  =  =@+=O=+   +=;;;;;;;;;;;;;;",
";;;;;;;;;;;;;;;;@@==+=+ % @@ =  O *+  =+ +== +O  +=;;;;;;;;;;;;;",
";;;;;;;;;;;;;;;;;+@%#= @@@@=+ * O+= + +==@.%#= + =@=;;;;;;;;;;;;",
";;;;;;;;;;;;;;;;;@@ =%#% @+.  +=  * = @+==+@=#@@+ + =;;;;;;;;;;;",
";;;;;;;;;;;;;;;;;@@+=====@@@+ O *    +@ @+=@X%#@@==+ @;;;;;;;;;;",
";;;;;;;;;;;;;;;;;;@=+#% +@@@@ +O=*+O  .+@= =X@=+@ ==+=@;;;;;;;;;",
";;;;;;;;;;;;;;;;;;;@+====@@+ +O   =  +@@@@+=+.+==%o=@+=@;;;;;;;;",
";;;;;;;;;;;;;;;;;;;;@ %#%== @= %O* *@  +@+==@@@=o===+@ +-;;;;;;;",
";;;;;;;;;;;;;;;;;;;;;@@@O+@+ +   @*= +@.@=+=+X %=O%= +@=;;;;;;;;",
";;;;;;;;;;;;;;;;;;;@@+@@@@@@@  *=*=*= X@+@ =@@+=#%= +@= ;;;;;;;;",
";;;;;;;;;;;;;;;;;;;;;;=+=%==+=+=*==*= +X@@+=+@@== =@@@+=;;;;;;;;",
";;;;;;;;;;;;;;;;;;;;;;@@= =+=@@+@=*=*@@@X@= =+@=%=+@@@=+;;;;;;;;",
";;;;;;;;;;;;;;;;;;;;;;;; % = +@@ % =O=+X@+@+=@+##= X+= ;;;;;;;;;",
";;;;;;;;;;;;;;;;;;;;;;;@@=%===+ @@ +#   +@==+ @=%=+@ =;;;;;;;;;;",
";;;;;;;;;;;;;;;;;;;;;;;;+ = % =+@@+ =+= @X@+=@+##=@ %=;;;;;;;;;;",
";;;;;;;;;;;;;;;;;;;;;;;@@=+#===+@@@X+O  +@@==+@$%=@==;;;;;;;;;;;",
";;;;;;;;;;;;;;;;;;;;;;;;;@@% % =@@+@@@+  =+ +=+##=+=;;;;;;;;;;;;",
";;;;;;;;;;;;;;;;;;;;;;;;@+@===% +@@@@@ @ +=@=@@$%#=;;;;;;;;;;;;;",
";;;;;;;;;;;;;;;;;;;;;;;;;;;@+  ===+= +@+@ @ +@+$#+=;;;;;;;;;;;;;",
";;;;;;;;;;;;;;;;;;;;;;;;;;@@==%=*@=+=@@=+=+@@=@o$=%-;;;;;;;;;;;;",
";;;;;;;;;;;;;;;;;;;;;;;;;;;;;+ @+=+O =%==@@@+@+=oo=;;;;;;;;;;;;;",
";;;;;;;;;;;;;;;;;;;;;;;;;;;;;@@=@ @==o=#+=+@@@==$o$=;;;;;;;;;;;;",
";;;;;;;;;;;;;;;;;;;;;;;;;;;;;@ +@%=#%#=%#=#==+ %o$%o=;;;;;;;;;;;",
";;;;;;;;;;;;;;;;;;;;;;;;;;;@@+==#==%#====o=% ==o$o$o$%-;;;;;;;;;",
";;;;;;;;;;;;;;;;;;;;;;;@@@=+@=O%=+ @=%#%=+@X@@%=$o=%##=@;;;;;;;;",
";;;;;;;;;;;;;;;;@ =====+===+@@X@X@=+ ==o#=+@@+=#%@@@@+X@;;;;;;;;",
";;;;;;;;;;;;X@====%#%#+=O% ==%#=o$o@==o$%=@+ ==#=@@+==@+@;;;;;;;",
";;;;;;;;;@@=#=o%#=#==+@@%#=o=#$o&#%=#o=== ==#%o$%==#$o=@@=;;;;;;",
";;;;;;;;@+=+#%=#=%=+@@+= ==+=+=%== =$%o=#%o$o$o==+*&o$o=o@;;;;;;",
";;;;;;;@=@@==#=%=O+=@=@=+;;;@=O=+#%o#$$o$o$%#=;;;@=o=o&==%;;;;;;",
";;;;;;@=+=$##%==+=@=+;;;;;;;@+@+=$o$o=++@+;;;;;;;;Xo$=oo= ;;;;;;",
";;;;;@= #=+=+=@+=;;;;;;;;;;@=@@=#o$o=;;;;;;;;;;;;;;@o%$=+;;;;;;;",
";;;;;;@%@%@;;;;;;;;;;;;;;;;=@+ %#&o=@;;;;;;;;;;;;;;;=$o#;;;;;;;;",
";;;;;;;;;;;;;;;;;;;;;;;;;;@+@@=#$o%@;;;;;;;;;;;;;;;;;#$+;;;;;;;;",
";;;;;;;;;;;;;;;;;;;;;;;;;+=@@+#&o$ ;;;;;;;;;;;;;;;;;;+=;;;;;;;;;",
";;;;;;;;;;;;;;;;;;;;;;;;;@=+@@=o$%-;;;;;;;;;;;;;;;;;; #;;;;;;;;;",
";;;;;;;;;;;;;;;;;;;;;;;;;+==@+o$o;;;;;;;;;;;;;;;;;;;;$@;;;;;;;;;",
";;;;;;;;;;;;;;;;;;;;;;;;;; ==@=o=;;;;;;;;;;;;;;;;;;;@ ;;;;;;;;;;",
";;;;;;;;;;;;;;;;;;;;;;;;;;;++=*= = ;;;;;;;;;;;;;;;;;;;;;;;;;;;;;",
";;;;;;;;;;;;;;;;;;;;;;;;;;;- =+O=*= ;;;;;;;;;;;;;;;;;;;;;;;;;;;;",
";;;;;;;;;;;;;;;;;;;;;;;;;;;@O;#=#;%=@;;;;;;;;;;;;;;;;;;;;;;;;;;;"
};
