/* XPM */
static char *iris_xpm[] = {
/* width height ncolors chars_per_pixel */
"64 64 8 1",
/* colors */
"` c black",
"a c lime green",
"b c green",
"c c magenta",
"d c red",
"e c purple",
"f c yellow",
"g c pale green",
/* pixels */
"ggggggggggggggggggggaaaaaggaaaabaaaaggbaaaa`gggggggggggggggggggg",
"gggggggggggggggggggggaaaaaggaaaabaaaggaaaaaagggggggggggggggggggg",
"gggggggggggggggggggggaaaaaggabaabaaaagaaaaaagggggggggggggggggggg",
"ggggggggggggggggggggggaaaaag`aaa``aaagaaaa`ggggggggggggggggggggg",
"ggggggggggggggggggggggaa````e`a`ee`aag`aaaaggggggggggggggggggggg",
"gggggggggggggggggggggg``eeeeee`eeee```e`aaaggggggggggggggggggggg",
"ggggggggggggggggggggg`eeeeeeeeeeeeeeeeee`aaggggggggggggggggggggg",
"gggggggggggggggggggg`eeeeeeeeeeeeeeeeeee`a`ggggggggggggggggggggg",
"gggggggggggggggggggg`eeeeeeeeeeeeeeeeeeee`e`gggggggggggggggggggg",
"gggggggggggggggggggg`eeeeeeeeeeeeeeeeeeeeeee`ggggggggggggggggggg",
"ggggggggggggg``````g`eeeeeeeeeeeeeeeeeeeeeee`ggggggggggggggggggg",
"ggggggggggg``eeeeee``eeeeeeeeeeeeeeeeeeeeeee`ggggggggggggggggggg",
"gggggggggg`eeeeeeeee`eeeeeeeeeeeeeeeeeeeeeee`ggggggggggggggggggg",
"gggggggggg`eeeeeeeee`eeeeeeeeeeeeeeeeeeeeeee```ggggggggggggggggg",
"ggggggggg`eeeeeeeeee`eeeeeeeeeeeeeeeeeeeeee`eee`gggggggggggggggg",
"ggggggggg`eeeeeeeeee`eeeeeeeeeeeeeeeeeeeeee`eeee`ggggggggggggggg",
"ggggggggg`eeeeeeeeee`eeeeeeeeeeeeeeeeeeeee`eeeeee`gggggggggggggg",
"ggggggggg`eeeeeeeeee``eeeeeeeeeeeeeeeeeee`eeeeeee`gggggggggggggg",
"gggggggg`eeeeeeeeee`g`eeeeeeeeeeeeeeeeee`eeeeeeeee`ggggggggggggg",
"ggaggggg`eeeeeeeeee`g`eeeeeeeeeeeeeeeee`eeeeeeeeee`ggggggggggggg",
"ggaagggg`eeeeeeeee`gg`eeeeeeeeeeeeeee```eeeeeeeeeee`gggggggggggg",
"gggaagggg`eeeeeeee`ggg`eeeeeeeeeeeee`ggg``eeeeeeeee`gggggagggggg",
"ggggaaggg`eeeeeee`gggg`eeeeeeeeeeee`gggggg`eeeeeeeee`ggggagggggg",
"ggggabagg`eeeeeee`ggggg`eeeeeeeeee`gggggggg`eeeeeeee`gggaggggggg",
"gggggabagg`eeeeee`ggggg`eeeeeeee``gggggggggg`eeeeeee`ggaaggggggg",
"ggggggaaag`eeeeee`gggggg`eeeeee`gggggggggggg`eeeeee`ggaagggggggg",
"gggggggabag`eeeeee`ggggg`eeeee`ggggggggggggg`eeeeee`ggaggggggggg",
"ggggggggaaaa`eeeee`gggggg`eee`ggggggggggggg`eeeeeee`gaaggggggggg",
"gggggggggabba`eeeee``gggg`eee`gggggggggggg`eeeeeee`ggagggggggggg",
"ggggggggggaaba`eeeeee```gg`e`gggggggggggg``eeeee``ggaagggggggggg",
"gggfgggggggaaaa``eeeeeee````e`gggggggg```eeeee``ggggaagggggggggg",
"ggggfgggggggabaag``ee```eeeee`````````eeeeee``gggggaaggggggggggg",
"gggggfgggggggaabag```eeeeeee`eeeeee`eeeee```gggggggaaggggggggggg",
"gggggafggggggaaaa`eeeeeeccee`eeeeeee`````gggggggggaagggggggggggg",
"ggggggafggggggba`eeeeecccee`a`eeeeeeee`ggggggggggga`gggggggggggg",
"ggggggaafgggggg`eeeeeccceee`a`eeeecceee``ggggggggaaggggggggggggg",
"gggggggabbgggg`eeeeecccceee`ga``eeeccceee```ggggaaaggggggggggggg",
"ggggggggaabgg`eeeeecccceee`ggaa``eeeecceeeee``gga`gggggggggggggg",
"ggggggggaaaa`eeeeedcccceee`ggaa``eeeeecceeeeee``aagggggggggggggg",
"gggggggggaab`eeeeedccceeee`ggga`g`eeeeeecceeeeee``gggggggggggggg",
"gggggggggaa`eeeeedcccceeee`gggaa`g`eeeeeecceeeeeee`ggggggggggggg",
"gggggggggg`eeeeeedcccceeeee`ggaa`gg`eeeeeecceeeeeee`gggggggggggg",
"ggggggggg`eeeeeeedcccceeeee`ggaa`ggg`eeeeedcceeeeeee`ggggggggggg",
"ggggggggg`eeeeeeedcccceeeee`ggaaaggg`eeeeedccceeeeeee`gggggggggg",
"gggggggg`eeeeeeeedccccceeeee`gaaaggg`eeeeedcccceeeeeee`ggggggggg",
"gggggggg`eeeeeeeecccccceeeeee`gaaagg`eeeeedccccceeeeee`ggggggggg",
"gggggggg`eeeeeeeeecccccceeeeee`aaagg`eeeeedcccccceeeee`ggggggggg",
"ggggggggg`eeeeeeeeecccccceeeeee`aag`eeeeedcccccccceeeee`gggggggg",
"ggggggggg`eeeeeeeeeeeccccceeeeee`a`eeeeeeccccccccceeeee`gggggggg",
"gggggggggg`eeeeeeeeeeeeccceeeeeee`eeeeeecccccccccceeeee`gggggggg",
"ggggggggggg`eeeeeeeeeeeeeeeeeeeee`eeeeeecccccccccceeeee`gggggggg",
"gggggggggggg``eeeeeeeeeeeeeeeeeee`eeeeeecccccccccceeeee`gggggggg",
"gggggggggggggg`````e``eeeeeeeeeee`eeeeeeeccccccccceeee`ggggggggg",
"ggggggggggggggggaaa`gg`eeeeeeeee`a`eeeeeeecccccceeeeee`ggggggggg",
"gggggggggggggggggaaagg``eee`````aag``eeeeeeeeeeeeeeee`gggggggggg",
"gggggggggggggggggaaaagg````aaggaaaggg``eeeeeeeeeeeeee`gggggggggg",
"gggggggggggggggggaaaaggggabaabgaaaggggg``eeeeeee``ee`ggggggggggg",
"ggggggggggggggggggaaaagggaabaagaaagggggga```eee`gg``gggggggggggg",
"ggggggggggggggggggaaabgggbaaaagaaagggggbbaaa```ggggggggggggggggg",
"ggggggggggggggggggaaaaaggaaababaaaaggggbbaaaaggggggggggggggggggg",
"gggggggggggggggggggaaaagggaaaaabaaaggggbaaa`gggggggggggggggggggg",
"gggggggggggggggggggaaaaaggbababbaaagggbbaaaagggggggggggggggggggg",
"ggggggggggggggggggggaaaaggaaaaabaaaaggbbaaaagggggggggggggggggggg",
"ggggggggggggggggggggaaaagggbaaabaaaaggaaaaaagggggggggggggggggggg"
};
