/* XPM */
static char *sonic2_xpm[] = {
/* width height ncolors chars_per_pixel */
"64 64 19 1",
/* colors */
"  c black",
". c tan",
"X c dodger blue",
"o c lavender",
"O c gainsboro",
"+ c firebrick",
"@ c peru",
"# c grey",
"$ c sienna",
"% c dark slate grey",
"& c red",
"* c sea green",
"= c navy blue",
"- c tomato",
"; c white",
": c slate grey",
"> c lemon chiffon",
", c None",
"< c blue",
/* pixels */
",,,,,,,,,,,,,,,,,,,,,,,,,,,,,,,,,,,,,,,,,,,,,,,,,,,,,,,,,,,,,,,,",
",,,,,,,,,,,,,,,,,,,,,,,,,,,,,,,,,,,,,,,,,,,,,,,,,,,,,,,,,,,,,,,,",
",,,,,,,,,,,,,,,,,,,,,,,,,,,,,,,,,,,,,,,,,,,,,,,,,,,,,,,,,,,,,,,,",
",,,,,,,,,,,,,,,XXXXXXX,,,,,,,,,,,,,,,,,,,,,,,,,,,,,,,,,,,,,,,,,,",
",,,,,,,,,,,,,,<===<==<XXXX,,,,,,,,,,,,,,,,,,,,,,,,,,,,,,,,,,,,,,",
",,,,,,,,,,,,,,,,%==<<====<X,,,,,,,,,,,,,,,,,,,,,,,,,,,,,,,,,,,,,",
",,,,,,,,,,,,,,,,,,===<<<===XX,,,,,,,,,,,,,,,,,,,,,,,,,,,,,,,,,,,",
",,,,,,,,,,,,,,,,,,,==%<<<<==<X,,,,,,,,,,,,,,,,,,,,,,,,,,,,,,,,,,",
",,,,,,,,,,,,,,,,,,,, ==<XX<==<X%,,,,,,,,,,,,,,,,,,,,,,,,,,,,,,,,",
",,,,,,,,,,,,,,,,,,,,,   =$X<==<X=,,,,,,,,,,,,,,,,,,,,,,,,,,,,,,,",
",,,,,,,,,,,,,,,,,,,,, = =@+X<==<XXXXX,,,,,,,XXXXX,,,,,,,,,,,,,,,",
",,,,,,,,,,,,,,,,,,,,,,   .@=X<= = = <XXX,,XX<==<,,,,,,,,,,,,,,,,",
",,,,,,,,,,,,,,,,,,,,,,  =.@@ <===<=== =<X<< ===,,,,,,,,,,,,,,,,,",
",,,,,,,,,,,,,,,,,,,,,,= =-@===%= ======= X====<,,,,,,,,,,,,,,,,,",
",,,,,,,,,,,,,,,,, XXX<  =.====<=<<<<<=====X==<,,,,,,,,,,,,,,,,,,",
",,,,,,,,,,,,,,*<XX = %=   ==<<=:##X=<<=<== X==,,,,,,,,,,,,,,,,,,",
",,,,,,,,,,,, XX ======= = ==<=#O###X=<<=<==<==,,,,,,,,,,,,,,,,,,",
",,,,,,,,,, X< ========< = =<<<#;*%o.=<%<<=<;<,,,,,,,,,,,,,,,,,,,",
",,,,,,,,, <=======<<<<== ==<<=;:; #oX <=<%;><,,,,,,,,,,,,,,,,,,,",
",,,,,,,,*< ===<<<<<=====  =<<=;#  :;;=<=<=;;<,,,,,,,,,,,,,,,,,,,",
",,,,,,,,< ==<========= = ==<<=;.  #;;X===<;; ,,,,,,,,,,,,,,,,,,,",
",,,,,,,%========= == = = ===<=OO  .;;o%=<%o; ,,,,,,,,,,,,,,,,,,,",
",,,,,,,< === ,,,,,,,,<<<  =@@.-;%%;;;;o. %>#  ,,,,,,,,,,,,,,,,,,",
",,,,,,,=,,,,,,,,,,,<<== = %@-.-.;;;;;;;.@.  #  ,,,,,,,,,,,,,,,,,",
",,,,,,,,,,,,,,,,,=< ===== $@@$@-.O;;;O-.-$    ,,,,,,,,,,,,,,,,,,",
",,,,,,,,,,,,,,,%<<======<= .@@@.-.-.-.@.$    ,,,,,,,,,,,,,,,,,,,",
",,,,,,,,,,,,,,%< %===<<<==+@-.$@@.@.@.@.@- ,,,,,,,,,,,,,,,,,,,,,",
",,,,,,,,,,,,,,< ==<=<<==== @@-.@-$@-@-.-@@,,,,,,,,,,,,,,,,,,,,,,",
",,,,,,,,,,,,,% =<=<===%= ==  @-@.@@@.@.@-,,,,,,,,,,,,,,,,,,,,,,,",
",,,,,,,,,,,,,<======== = = = = @-@-@-@-$,,,,,,,,,,,,,,,,,,,,,,,,",
",,,,,,,,,,,,, ===== =   ,,,,== =$ $$$   ,,,,,,,,,,,,,,,,,,,,,,,,",
",,,,,,,,,,,,%====   ,,,,,,,== o;;-@$@-..,,,,,,,,,,,,,,,,,,,,,,,,",
",,,,,,,,,,,,<=   ,,,,,,,,, ===$.;$.-@@;O,,,,,,,,,,,,,,,,,,,,,,,,",
",,,,,,,,,,,, = ,,,,,,,,,, == %#o#>;..;OO#,,,,,,,,,,,,,,,,,,,,,,,",
",,,,,,,,,,,,= ,,,,,,,,,,,<<=:.o#o#:;.;;OOO,,,,,,,,,,,,,,,,,,,,,,",
",,,,,,,,,,,, ,,,,,,,,,,%<==  o#o.o#o#oO.@@%,,,,,,,,,,,,,,,,,,,,,",
",,,,,,,,,,,,,,,,,,,,,,%< ====@oO$@;.@$.--@$,,,,,,,,,,,,,,,,,,,,,",
",,,,,,,,,,,,,,,,,,,,,,<%==<==$@$.-@-@@$$@.$,,,,,,,,,,,,,,,,,,,,,",
",,,,,,,,,,,,,,,,,,,,,% ==<===-$@$@$$$$.-.,,,,,,,,,,,,,,,,,,,,,,,",
",,,,,,,,,,,,,,,,,,,,,<==<==== @-@$$@.-.-@,,,,,,,,,,,,,,,,,,,,,,,",
",,,,,,,,,,,,,,,,,,,,<=<<======-@-.@.-.@.-,,,,,,,,,,,,,,,,,,,,,,,",
",,,,,,,,,,,,,,,,,,,,<=====  == $@.-.@.@- ,,,,,,,,,,,,,,,,,,,,,,,",
",,,,,,,,,,,,,,,,,,, ===  , = ==+$-@@.-@ ,,,,,,,,,,,,,,,,,,,,,,,,",
",,,,,,,,,,,,,,,,,,, = =,,,+  ==== @@- = ,,,,,,,,,,,,,,,,,,,,,,,,",
",,,,,,,,,,,,,,,,,,, %=,,,,,%  =====  =  ,,,,,,,,,,,,,,,,,,,,,,,,",
",,,,,,,,,,,,,,,,,,,,= ,,,,,,=      =  + ,,,,,,,,,,,,,,,,,,,,,,,,",
",,,,,,,,,,,,,,,,,,,, ,,,,,,,== + %   == ,,,,,,,,,,,,,,,,,,,,,,,,",
",,,,,,,,,,,,,,,,,,,,,,,,,,,== $@  + ==  ,,,,,,,,,,,,,,,,,,,,,,,,",
",,,,,,,,,,,,,,,,,,,,,,,,,  ==   ,,,, ===,,,,,,,,,,,,,,,,,,,,,,,,",
",,,,,,,,,,,,,,,,,,,,,,,,,+ == + ,,,,,== ,,,,,,,,,,,,,,,,,,,,,,,,",
",,,,,,,,,,,,,,,,,,,,,,,,,  = % %,,,,, ==,,,,,,,,,,,,,,,,,,,,,,,,",
",,,,,,,,,,,,,,,,,,,,,,,,,#:=  + ,,,OX== ,,,,,,,,,,,,,,,,,,,,,,,,",
",,,,,,,,,,,,,,,,,,,,,,,,#O ==.: ,,,  = ##,,,,,,,,,,,,,,,,,,,,,,,",
",,,,,,,,,,,,,,,,,,,,,,,,:O% = # ,,,;    o%,,,,,,,,,,,,,,,,,,,,,,",
",,,,,,,,,,,,,,,,,,,,,,,,%#OO### ,, ;oooo#,,,,,,,,,,,,,,,,,,,,,,,",
",,,,,,,,,,,,,,,,,,,,,,,%o.#O:O  ,,,>o;O#>%,,,,,,,,,,,,,,,,,,,,,,",
",,,,,,,,,,,,,,,,,,,,,,, $:O#%.: ,, ;oO;O%$ ,,,,,,,,,,,,,,,,,,,,,",
",,,,,,,,,,,,,,,,,,,,,, ;#   + + ,, &%  &#o#$ ,,,,,,,,,,,,,,,,,,,",
",,,,,,,,,,,,,,,,,,,,, &+OO#&+&&+,,&&&&-$OoO+&&+,,,,,,,,,,,,,,,,,",
",,,,,,,,,,,,,,,,,,,,+&+&+;:%&&& ,,&-+&&$%%&&-&+&+,,,,,,,,,,,,,,,",
",,,,,,,,,,,,,,,,,,+&&+&&++$$&,,,,,  % % +++&&&&&++,,,,,,,,,,,,,,",
",,,,,,,,,,,,,,,,,+&+&+ ,,,,,,,,,,,,,,,,,,,,,,,,,,,,,,,,,,,,,,,,,",
",,,,,,,,,,,,,,,,,,,,,,,,,,,,,,,,,,,,,,,,,,,,,,,,,,,,,,,,,,,,,,,,",
",,,,,,,,,,,,,,,,,,,,,,,,,,,,,,,,,,,,,,,,,,,,,,,,,,,,,,,,,,,,,,,,"
};
