/* XPM */
static char *tuna_xpm[] = {
/* width height ncolors chars_per_pixel */
"64 64 6 1",
/* colors */
"` c black",
"a c dodger blue",
"b c sky blue",
"c c red",
"d c white",
"e c gold",
/* pixels */
"cccccccccccccccccccccccccccccccccccccccccccccccccccccccccccccccc",
"cccccccccccccccccccccccccccccccccccccccccccccccccccccccccccccccc",
"ccccccceeeeeeeeeeeeeeeeeeeeeeeeeeeeeeeeeeeeeeeeeeeeeeeeeeccccccc",
"ccccccceeeeeeeeeeeeeee```eeee````eeeeeeeeeeeeeeeeeeeeedeeccccccc",
"cceeeeeeeeeeeeeeeeee``ccc```e`cc`ee````eeeeeeeeeeeeeeeddeeeeeecc",
"cceeeeeeeeeeeeeeeee`cccccccc``cc`e`ccc``eeeeeeeeeeeeeeedeeedeecc",
"cceeeedeeeeeeeeeeee`ccccccccc`ccc`cccc``eeeeeeeeeeeeeeeeeeedeecc",
"cceeddeddeeeeeeeeeee`cccccccc`cccccccc`eeeeeeeeeeeeeeeeeeeeddecc",
"cceedeeedeeeeeeeeeee``cccccccccccccc`````eeeeeeeeeeeeeeedeeedecc",
"ccedeeeeedeeeeeeeeeee``cccccccc```ccccccc`eeeeeeeeeeeeddeddeeecc",
"cceedeeedeeeeeeeeeeeee```cc````aaa```````eeeeeeeeeeeeedeeedeeecc",
"cceeddeddeeeeeeeeeeeeeee```aaaaaaaaa```eeeeeeeeeeeeeedeeeeedeecc",
"cceeeedeeeeeeeeeeeeeeee`aaaaaaaaaaaaaa``eeeeeeeeeeeeeedeeedeeecc",
"cceeeeeeeeeeeeeeeee`````````````aa`````````eeeeeeeeeeeddeddeeecc",
"cceeeeeedeeeeeeeee``````````````````````````eeeeeeeeeeeedeeeeecc",
"cceeeeddeddeeeeeeeeee`a`ddddddd`aa`dddddddd`eeeeeeeeeeeeeeeeeecc",
"cceeeedeeedeeeeeeee``aa`dd``ddd`aa`dd``dddd`eeeeeeeeeeeeeeeeeecc",
"cceeedeeeeedeeeee``aaaaa`d```dd`aaa`d```dd`eeeeee```eeeeeeeeeecc",
"cceeeedeeedeeeee`aaaaaaaa``ddd`aaaaa``ddd`eeeeee`aaa`eeeeeeeeecc",
"cceeeeddeddeeee`aaaaaaaaaaa```aaaaaaaa```a`eeeeee``aa````eedeecc",
"ccedeeeedeeeee`aaaaaaa``aaaaaaaaaaaaaaaaaa``ee```aaaaaaaa`edeecc",
"cceedeeeeeeee`aaaaaaa````aaaaaaaaaaaaaaaaaa```aaaaaa`aaaa`edeecc",
"cceedeeeeeee`aaaaaaaaa````````````````````a`aaaaaaa`e````eedeecc",
"cceedeedeee`aaaaaaaaaaa`ccccccccccccc```b```aaaaa``eeeeeeeddeecc",
"cceeeeedeee`aaaaa`aaaaa```````cccccc`bbbb``aaaaa``eeeeeeeedeeecc",
"cceeeeeddeee`aaaa``aaa`bb`cccc``ccc`bbbb`aaaaaa``eeeeeeeeeeeeecc",
"cceeeeeedeee`aaaaa``aa``bb``cccc```bbbb``aaaa``eeeeeeeeeeeeeeecc",
"cceeeeeeeeeee`aaaaa``aa`bbbb`````bbbbb``aaa```eeeeeeeeeeeeeeeecc",
"cceeeeeeeeeeee`aaaaa`aa``bbbbbbbbbbbb``aaa``eeeeeeeeeeeeedeeeecc",
"cceeedeeeeeeeee``aaaa`aa`bbbbbbbbbbb``aa``eeeeeeeeeeeeeddeddeecc",
"cceddeddeeeeeeeee``aa`aa``bbbbbbbbbb`aa``eeeeeeeeeeeeeedeeedeecc",
"ccedeeedeeeeeeeeeee```aaa`bbbbbbbbb``a`eeeeeeeeeeeeededeeeeedecc",
"ccdeeeeedeeeeeeeeeeee`aaa`bbbbbbbb``a``eeeeeeeeeeeedeeedeeedeecc",
"ccedeeededeeeeeeeeeeee`aa`bbbbbbb``a``eeeeeeeeeeeeedeeeddeddeecc",
"cceddeddedeeeeeeeeeeee`aa`bbbbbbb`aa`eeeeeeeeeeeeeeedeeeedeeeecc",
"cceeedeeedeeeeeeeeeeee`aa`bbbbbbb`a`eeeeeeeeeeeeeeeeddeeeeeeeecc",
"cceeeeeedeeeeeeeeeeeeee`a``bbbbb`aa`eeeeeeeeeeeeeeeeedeeeeeeeecc",
"cceeddeeeeeeeeeeeeeeeee`aa`bbbbb`a`eeeeeeeeeeeeeeeeeeeeeeeeeeecc",
"cceeeeeeeedeeeeeeeeeeeee`a`bbbbb`a`eeeeeeeeeeeeeeeeeeeeeeeedeecc",
"cceeeeeeddeddeeeeeeeeeee`a``bbbb```eeeeeeeeeeeeeeeeeeedeeeedeecc",
"ccedeeeedeeedeeeeeeeeeee`aa`bbbb``eeeeeeeeeeeeeeeeeeddeddeeddecc",
"cceeeeedeeeeedeeeeeeeeee``a`bbbb``eeeeeeeeeeeeeeeeeedeeedeeedecc",
"cceeeeeedeeedeeeeeeeeeeee`a`bbb```eeeeeeeeeeeeeeeeedeeeeedeedecc",
"cceedeeeddeddeeeeeeeeeeee`a`bbb`aa`eeeeeeeeeeeeeeeeedeeedeeedecc",
"cceeeeeeeedeeeeeeeeeeeeee`a`bbb`aa`eeeeeeeeeeeeeeeeeddeddeeedecc",
"cceedeeeeeeedeeeeeeeeeee`aa``bb`aa``eeeeeeeeeeeeeeeeeedeeeedeecc",
"cceeeeeeeeeedeeeeeeeeeee`aaa`bb`aaa`eeeeeeeeeeeeeeeeeeeeeeeeeecc",
"cceeeeeeeeeedeeeeeeeeee`aaaa`bb`aaaa```eeeeeeeeeeeeeeeeeeeeeeecc",
"cceeeedeeeeddeeeeeeeeee`aaaa`bb`aaaaaa``eeeeeee``eeeeeeeeeeeeecc",
"cceeddeddeeeeeeeeeeeeee`aaaaa``aaaaaaaa``eeeee``a`eeeeeedeeeeecc",
"cceedeeedeeeeeeeeeeeee`aaaaaaaaaaaaaaaaaa`eee``aa`eeeeddeddeeecc",
"ccedeeeeedeeeee```ee``aaaaaaa``aaaaaaaaaaa```aaaa`eeeedeeedeeecc",
"cceedeeedeeeee`aaa``aaaaaaaa`````aaaaaaaaaaaaaaa``eeedeeeeedeecc",
"cceeddeddeeee`aaaaaaaaaaaaa``eee````aaaaaaaaaaaa`eeeeedeeedeeecc",
"cceeeedeeeeee`aaaaaaaaaaa```eeeeeee````aaaaaa```eeeeeeddeddeeecc",
"cceedeeedeeeee`aaaaaaaaa``eeeeeeeeeeeee``````eeeeeeeeeeedeeddecc",
"cceeedeedeeeeee`aaaa````eeeeeeeeeeeeeeeeeeeeeeeeeeeeeeeeeeedeecc",
"cceeeedddeeeeeee````eeeeeeeeeeeeeeeeeeeeeeeeeeeeeeeeeeeededdeecc",
"cceeeeedeeeeeeeeeeeeeeeeeeeeeeeeeeeeeeeeeeeeeeeeeeeeeeeededeeecc",
"cceeeeeeeeeeeeeeeeeeeeeeeeeeeeeeeeeeeeeeeeeeeeeeeeeeeeeeddeeeecc",
"ccccccceeeeeeeeeeeeeeeeeeeeeeeeeeeeeeeeeeeeeeeeeeeeeeeeeeccccccc",
"ccccccceeeeeeeeeeeeeeeeeeeeeeeeeeeeeeeeeeeeeeeeeeeeeeeeeeccccccc",
"cccccccccccccccccccccccccccccccccccccccccccccccccccccccccccccccc",
"cccccccccccccccccccccccccccccccccccccccccccccccccccccccccccccccc"
};
