/* XPM */
static char *ez_xpm[] = {
/* width height num_colors chars_per_pixel */
"    39    21        2            1",
/* colors */
". c #880000",
"# c #f8fcf8",
/* pixels */
"#######################################",
"#######################################",
"#######################################",
"#######################################",
"#######################################",
"#####.....#############################",
"######.###.############################",
"######.###.##...#...###...#####.....###",
"######.####.###..#########.###..##.####",
"######.####.###.##########.###.###.####",
"######.###.####.#######....###.###.####",
"######.###.####.######.###.###..##.####",
"#####.....###.....####......###....####",
"##################################.####",
"###############################...#####",
"#######################################",
"#######################################",
"#######################################",
"#######################################",
"#######################################",
"#######################################"
};
