/* XPM */
static char * borrar_8_xpm[] = {
"64 64 2 1",
" 	c None",
".	c #000000000000",
"                                                                ",
"                                                                ",
"                                                                ",
"                                                                ",
"                                                                ",
"                                                                ",
"                                                                ",
"                                                                ",
"                                                                ",
"                                                                ",
"                                                                ",
"                                                                ",
"                                                                ",
"                                                                ",
"                                                                ",
"                                                                ",
"                                                                ",
"                                                                ",
"                                                                ",
"                                                                ",
"                                                                ",
"                                                                ",
"                                                                ",
"                                                                ",
"                                                                ",
"                                                                ",
"                                                                ",
"                                                                ",
"                                                                ",
"                                                                ",
"                                                                ",
"                                                                ",
"                                                                ",
"                                                                ",
"                                                                ",
"                                                                ",
"                                                                ",
"                                                                ",
"                                                                ",
"                                                                ",
"                                                                ",
"                                                                ",
"                                                                ",
"                                                                ",
"                                                                ",
"                                                                ",
"                                                                ",
"                                                                ",
"                                                                ",
"                                                                ",
"                                                                ",
"                                                                ",
"                                                                ",
"                                                                ",
"                        .         .      ..                     ",
"                 . .  . .  ....      ..                         ",
"             .  ... .    ... .   ..     .  .. . .. .            ",
"             ...   . .  ....      . .. .  .   .    .            ",
"            .. .. .. ..  . . ...    ...... ... . .              ",
"           ...  .. .....     .  .. . .. . . .     ..            ",
"            ... . ......  . . .. .     ..   .. .   .            ",
"             . ................ ........ .. .......             ",
"           ..........................................           ",
"                                                                "};
