/* XPM */
static char * borrar_4_xpm[] = {
"64 64 6 1",
" 	c None",
".	c #000000000000",
"X	c #FFFFCF3C9A69",
"o	c #8A2800000000",
"O	c #FFFF00000000",
"+	c #FFFFFFFF0000",
"                                                                ",
"           .........................                            ",
"           .XXXXXXXXXXXXXXXXXXXXXXX..                           ",
"           .XXXXXXXXXXXXXXXXXXXXXXX.o.                          ",
"           .XXXXXXXXXXXXXXXXXXXXXXX.oo.                         ",
"           .XXXXXXXXXXXXXXXXXXXXXXX.ooo.                        ",
"           .XXXXXXXXXXXXXXXXXXXXXXX.oooo.                       ",
"           .XXXXXXXXXXXXXXXXXXXXXXX.ooooo.                      ",
"           .XXXXXXXXXXXXXXXXXXXXXXX.oooooo.                     ",
"           .XXXXXXXXXXXXXXXXXXXXXXX.ooooooo.                    ",
"           .XXXXXXXXXXXXXXXXXXXXXXX.oooooooo.                   ",
"           .XXXXXXXXXXXXXXXXXXXXXXX.ooooooooo.                  ",
"           .XXXXXXXXXXXXXXXXXXXXXXX.oooooooooo.                 ",
"           .XXXXXXXXXXXXXXXXXXXXXXX.ooooooooooo.                ",
"           .XXXXXXXXXXXXXXXXXXXXXXX.oooooooooooo.               ",
"           .XXXXXXXXXXXXXXXXXXXXXXX.ooooooooooooo.              ",
"           .XXXXXXXXXXXXXXXXXXXXXXX.oooooooooooooo.             ",
"           .XXXXXXXXXXXXXXXXXXXXXXX.ooooooooooooooo.            ",
"           .XXXXXXXXXXXXXXXXXXXXXXX.oooooooooooooooo.           ",
"           .XXXXXXXXXXXXXXXXXXXXXXX...................          ",
"           .XXXXXXXXXXXXXXXXXXXXXXXXXXXXXXXXXXXXXXXXX.          ",
"           .XXXXXXXXXXXXXXXXXXXXXXXXXXXXXXXXXXXXOXXXX.          ",
"           .XXXXXXXXXXXXXXXXXXXXXXXXXXXXXXXXXXXXOOXXX.          ",
"           .XXXXXXXXXXXXXXXXXXXXXOOXXXXXXXXXXXXOOOXXX.          ",
"           .XXXXXXXOXXXXXXXXXXXXOOOOXXXXXXXXXXXOOOXXX.          ",
"           .XXXXXXXOOXXXXXXXXXXOO+OOOXXXXXXXXXOOOOXXX.          ",
"           .XXXXXXOOOOXOXXXXXXXOO+OOOXXXXXXXOOOOOOXXX.          ",
"           .XXXXXXOOOOOOOXXXXXOO++++OOXXXXXOOOOOOOXXX.          ",
"           .XXXXXXOOOOOOOXXXXXOO+++++OOOOOOOOOOOOOOXX.          ",
"           .XXXXXOOOO++++OOXXOO+++++++OOOOOOOOOOOOOXX.          ",
"           .XXXXOOOO+++++OOXOOO+++++++OOOOOO+OOOOOOOX.          ",
"           .XXXOOOO+++++++OOOO++++++++OOOOOO++++OOOOO.          ",
"           .XXXOOO++++++++OOO++++++++OOOOOO++++++OOOO.          ",
"           .XXOOO++++++++++OO++++++++OOOOO++++++++OOO.          ",
"           .XXOO+++++++++++OO+++++++OOOOOO++++++++++OO          ",
"           .XOOO+++++++++++OO+++++++OOO+OO+++++++++++.          ",
"           .XOOO++++++++++++OO+++++OO.....+++++++++++.          ",
"           .OOO+++++++++++++OO........    ...++++.....          ",
"           .OOO+++++++++++....  ..           .....              ",
"           .OO++++++++++...                                     ",
"           .OO++++++++....                                      ",
"           .O++++......                                         ",
"           .O+....                                              ",
"           ....                                                 ",
"                                                                ",
"                                                                ",
"                                                                ",
"                                                                ",
"                                                                ",
"                                                                ",
"                                                                ",
"                                                                ",
"                                                                ",
"                                                                ",
"                                                                ",
"                                                                ",
"                                                                ",
"                     .  ....                                    ",
"                . .      .   ...               . .              ",
"                .. .....     .  .. . .. . . .     ..            ",
"             .. .   ....  . . .. .     ..   ..     .            ",
"             . ................ ........ .. .......             ",
"           ..........................................           ",
"                                                                "};
