/* XPM */
static char * borrar_5_xpm[] = {
"64 64 6 1",
" 	c None",
".	c #000000000000",
"X	c #FFFFCF3C9A69",
"o	c #FFFF00000000",
"O	c #8A2800000000",
"+	c #FFFFFFFF0000",
"                                                                ",
"           .........................                            ",
"           .XXXXXXXXXXXXXXXXXXXXXXX..                           ",
"           .XXXXXXooXXXXXXXXXXXXXXX.O.        oo                ",
"           .XXXXXXooXXXXXXXXXXooXXX.OO.       oo                ",
"           .XXXXXooooXXXXXXXXoooXXX.OOO.     ooo                ",
"           .XXXXoooooXXXXXXXXoooXXX.OOOO.    ooo                ",
"           .XXXXooooooXXXXXoooooXXX.OOOOO.  ooooo               ",
"           .XXXXooooooXXXXXooo+ooXX.OOOOOO.oooooo      o        ",
"           .XXXXooooooXXXXooo++ooXX.OOOOOoooo++ooo    oo        ",
"           .XXXooooooooXXooo+++ooXX.OOOOOoooo++ooo   ooo        ",
"           .XXXoooo+oooXooo++++oooX.OOOooooo++++oo ooooo        ",
"           .XXXooo+++ooooo++++++ooX.OOOooo+++++++ooooo+o        ",
"           .XXooo+++++ooo+++++++ooo.OOoooo+++++++ooo+++o        ",
"           .XXooo+++++ooo+++++++ooooooooo++++++++oo++++o        ",
"           .Xoo+++++++ooo++++++++ooooooo+++++++++oo++++o        ",
"           .oo++++++++oooo+++++++ooooo++++++++++++o+++oo        ",
"           ooo+++++++++ooo++++++++ooo+++++++++++++++++o         ",
"           oo++++++++++o++++++++++ooo+++++++++++++++++o         ",
"           .+++++++++o++++++++++o+++++++++++++++++++++o         ",
"           .++++++++oo++++++++++o+++++++++++++++++++++o         ",
"           .++++++++oo+++++++++oo+++++++........o++++oo         ",
"           .+++++++oooo++++++++ooo+++++...     ...+++o          ",
"           .+++++++oooo++++++++oooo++...         .....          ",
"           ....++++oooo+++++.........                           ",
"              .....oooo++....     .                             ",
"                   .oo+....                                     ",
"                    .o....                                      ",
"                    ....                                        ",
"                               .                   .            ",
"                               .           .                    ",
"              .                .        .  .                    ",
"              .                         .  .                    ",
"             ..            .               .                    ",
"             .                             .                    ",
"             .                             .                    ",
"                  .                                             ",
"                  .                                             ",
"                  .                                             ",
"            ..                                                  ",
"                     .                      .                   ",
"                     .             .        .                   ",
"                     .      .      .   .        .               ",
"                     .      .      .   .                        ",
"                     .      .      .   .                        ",
"                  ..        .          .                        ",
"                  .                    .                        ",
"                                 .                              ",
"                  .         .    .                              ",
"                 ..         .    .                              ",
"                            .                                   ",
"                            ..                 .                ",
"            .                .        .        .                ",
"            .                .        .                         ",
"                                  .                             ",
"                              .                                 ",
"                                                                ",
"             .       .  ....                                    ",
"                . .      .   ...               . .              ",
"                .. .....     .  .. . .. . . .     ..            ",
"             .. .   ....  . . .. .     ..   ..     .            ",
"             . ................ ........ .. .......             ",
"           ..........................................           ",
"                                                                "};
