/* XPM */
static char * borrar_3_xpm[] = {
"64 64 6 1",
" 	c None",
".	c #000000000000",
"X	c #FFFFCF3C9A69",
"o	c #8A2800000000",
"O	c #FFFF00000000",
"+	c #FFFFFFFF0000",
"                                                                ",
"           .........................                            ",
"           .XXXXXXXXXXXXXXXXXXXXXXX..                           ",
"           .XXXXXXXXXXXXXXXXXXXXXXX.o.                          ",
"           .XXXXXXXXXXXXXXXXXXXXXXX.oo.                         ",
"           .XXXXXXXXXXXXXXXXXXXXXXX.ooo.                        ",
"           .XXXXXXXXXXXXXXXXXXXXXXX.oooo.                       ",
"           .XXXXXXXXXXXXXXXXXXXXXXX.ooooo.                      ",
"           .XXXXXXXXXXXXXXXXXXXXXXX.oooooo.                     ",
"           .XXXXXXXXXXXXXXXXXXXXXXX.ooooooo.                    ",
"           .XXXXXXXXXXXXXXXXXXXXXXX.oooooooo.                   ",
"           .XXXXXXXXXXXXXXXXXXXXXXX.ooooooooo.                  ",
"           .XXXXXXXXXXXXXXXXXXXXXXX.oooooooooo.                 ",
"           .XXXXXXXXXXXXXXXXXXXXXXX.ooooooooooo.                ",
"           .XXXXXXXXXXXXXXXXXXXXXXX.oooooooooooo.               ",
"           .XXXXXXXXXXXXXXXXXXXXXXX.ooooooooooooo.              ",
"           .XXXXXXXXXXXXXXXXXXXXXXX.oooooooooooooo.             ",
"           .XXXXXXXXXXXXXXXXXXXXXXX.ooooooooooooooo.            ",
"           .XXXXXXXXXXXXXXXXXXXXXXX.oooooooooooooooo.           ",
"           .XXXXXXXXXXXXXXXXXXXXXXX...................          ",
"           .XXXXXXXXXXXXXXXXXXXXXXXXXXXXXXXXXXXXXXXXX.          ",
"           .XXXXXXXXXXXXXXXXXXXXXXXXXXXXXXXXXXXXXXXXX.          ",
"           .XXXXXXXXXXXXXXXXXXXXXXXXXXXXXXXXXXXXXXXXX.          ",
"           .XXXXXXXXXXXXXXXXXXXXXXXXXXXXXXXXXXXXXXXXX.          ",
"           .XXXXXXXXXXXXXXXXXXXXXXXXXXXXXXXXXXXXXXXXX.          ",
"           .XXXXXXXXXXXXXXXXXXXXXXXXXXXXXXXXXXXXXXXXX.          ",
"           .XXXXXXXXXXXXXXXXXXXXXXXXXXXXXXXXXXXXXXXXX.          ",
"           .XXXXXXXXXXXXXXXXXXXXXXXXXXXXXXXXXXXXXXXXX.          ",
"           .XXXXXXXXXXXXXXXXXXXXXXXXXXXXXXXXXXXXXXXXX.          ",
"           .XXXXXXXXXXXXXXXXXXXXXXXXXXXOOXXXXXXXXXXXX.          ",
"           .XXXXXXXXXXXXXXXXXXXXXXXXXXOOOXXXXXXXXXXXX.          ",
"           .XXXXXXXXXXXXXXXXXXXXXXXXXXOOOXXXXXXXXXXXX.          ",
"           .XXXXXXXXXXXXXXXXXXXXXXXXXOOOOOXXXXXXXXXXX.          ",
"           .XXXXXXXXXXXXXXXXXXXXXXXXXOOOOOXXXXXXXXXXX.          ",
"           .XXXXXXXXXXXXXXXXXXXXXXXXOOOOOOXXXXXXXXXXX.          ",
"           .XXXXXXXXXXXXXXXXXXXXXXXXOOO+OOXXXXXXXXXXX.          ",
"           .XXXXXXXXXXXXXXXXOOXXXXXOOO++OOXXXXXXXXXXX.          ",
"           .XXXXXXXXXXXXXXXXOOXXXXXOO+++OOXXXXXXXOXXX.          ",
"           .XXXXXXXXXXXXXXXXOOOXXXOOO+++OOOOOOOXOOXXX.          ",
"           .XXXXXXXXXXXXXXXO++OXXOOO++++OOOO+++OOOXXX.          ",
"           .XXXXXXXXXXXXXXXO++OXOOOO+++++OOO+++++OOOX.          ",
"           .XXXXXXXXXXXXXXOO+++OOOO++++++OOO+++++++OX.          ",
"           .XXXXXXXXXXXXXXOO+++OO++++++++OOO++++++++O.          ",
"           .XXXXXXXXXXXXXOOO+++OO++++++++++O+....++OO.          ",
"           .XXXXXXXXXOOXXOOO+++OO++++++++++++.........          ",
"           .XXXXXXXXXOOOOOO++++OO+++++++++++..     ..           ",
"           .XXXXXXXXXOOOOOO++++OO++++++++....                   ",
"           .XXXXXXXXOOOOOOO+++++O+.......                       ",
"           .XXXXXXXXOOO+OOO++++....                             ",
"           .XXXXXXXXOOO+++++++..                                ",
"           .XXXXXXXXOOO++++++..                                 ",
"           .XXXXXXXOO++++++++.                                  ",
"           .XXXXXXXOO+++++++.                                   ",
"           .XXXXXXXO+++++++..                                   ",
"           .XXXXXXXO++++++..                                    ",
"           .XXXXXXOO+++++..                                     ",
"           .XXXXXXO+++++..                                      ",
"           .XXXXXXO+++...                                       ",
"           .XXXXXXO+++.                        . .              ",
"           .XXXXXXO++.       .     . .. . . .     ..            ",
"           .XXXXXOO++.      . ..       ..   ..     .            ",
"           .XXXXXOO++.  ....... ........ .. .......             ",
"           ...........  .............................           ",
"                                                                "};
