/* XPM */
static char * borrar_6_xpm[] = {
"64 64 5 1",
" 	c None",
".	c #FFFF00000000",
"X	c #000000000000",
"o	c #FFFFCF3C9A69",
"O	c #FFFFFFFF0000",
"             . ..    ....      ....   ....                      ",
"           XX.....XX.....XXXXXX..... .....                      ",
"           Xo.....oo..OO..oooo..OOO.X.OO..                      ",
"           X..OO......OO...oo...OOO...OO..                      ",
"           X.OOOO....OOOO..oo...OOO...OO..                      ",
"           XOOOOO....OOOO...o...OOO...OO..                      ",
"           XOOOO.....OOOOO......OOXX..OOO.                      ",
"           XOOOO......OOOOO.....OXXX.OOOOX                      ",
"           XOOOO......OOOOO...OXX   .OOOOX                      ",
"           XXXXXXXX...OOOO...OXX    XXOOOX                      ",
"                   XXXXXO...OOX      XXOOX                      ",
"                        X..OOX        XXXX                      ",
"                        XXXXOX        XX   X                    ",
"                          XXXX XX          X                    ",
"                                                                ",
"                                                                ",
"                                                                ",
"                             X                                  ",
"                             X                                  ",
"                X       X    X                                  ",
"           X    X        X   X                                  ",
"           X             X                                      ",
"            X                         XX                        ",
"                                       X  X                     ",
"                                          X                     ",
"                                                                ",
"                                                                ",
"                                                                ",
"                                                                ",
"                    X          X                                ",
"                    X          X                                ",
"                    X          X      X   X                     ",
"                                      X   X                     ",
"                           X              X                     ",
"                                                                ",
"             X                                                  ",
"             X               X                                  ",
"             X        X      X                                  ",
"             X        X      X                                  ",
"                      X      X                                  ",
"                      X       X                                 ",
"                                                                ",
"                                       X                        ",
"                                       X                        ",
"                                       X                        ",
"                  XX                        X                   ",
"                  X                         X                   ",
"                                 X                              ",
"                       X                                        ",
"                       X    X               X                   ",
"                       X    X                                   ",
"                            XX                 X                ",
"            X                X                 X                ",
"            X                X        X                         ",
"                                  X                             ",
"                              X                                 ",
"                    X                                           ",
"             X       X  XXXX                                    ",
"                X X      X   XXX               X X              ",
"                XX XXXXX     X  XX X XX X X X     XX            ",
"             XX X   XXXX  X X XX X     XX   XX     X            ",
"             X XXXXXXXXXXXXXXXX XXXXXXXX XX XXXXXXX             ",
"           XXXXXXXXXXXXXXXXXXXXXXXXXXXXXXXXXXXXXXXXXX           ",
"                                                                "};
